<svg width="32" height="31" viewBox="0 0 32 31" fill="none" xmlns="http://www.w3.org/2000/svg">
<path d="M24.65 16.0726C24.65 15.4358 24.5884 14.7785 24.4857 14.1623H15.5914V17.798H20.6856C20.4802 18.9689 19.8023 19.9959 18.7958 20.6532L21.8359 23.0155C23.623 21.3516 24.65 18.9278 24.65 16.0726Z" fill="#4280EF"/>
<path d="M15.5931 25.2749C18.1402 25.2749 20.2764 24.4327 21.8375 22.9949L18.7975 20.6532C17.9553 21.2283 16.8666 21.557 15.5931 21.557C13.1282 21.557 11.0535 19.8932 10.2935 17.6747L7.17126 20.078C8.77346 23.2619 12.0189 25.2749 15.5931 25.2749Z" fill="#34A353"/>
<path d="M10.2927 17.6543C9.90239 16.4835 9.90239 15.2099 10.2927 14.0391L7.17044 11.6152C5.83528 14.2856 5.83528 17.4283 7.17044 20.0781L10.2927 17.6543Z" fill="#F6B704"/>
<path d="M15.5931 10.1569C16.9282 10.1364 18.2429 10.6499 19.2083 11.5742L21.8992 8.86283C20.1943 7.26063 17.9347 6.39791 15.5931 6.41845C12.0189 6.41845 8.77346 8.43147 7.17126 11.6153L10.2935 14.0392C11.0535 11.8002 13.1282 10.1569 15.5931 10.1569Z" fill="#E54335"/>
</svg>
